<svg viewBox="1562 1574 98143 98463" xmlns="http://www.w3.org/2000/svg">
<path d="M97538,50203 L97538,51426 L98142,51426 L98142,52612 L97484,52612 L97484,53823 L97514,53823 L97514,55016 L97318,55016 L97318,56330 L98062,56330 L98062,57447 L97258,57447 L97258,58648 L97093,58648 L97093,59893 L97115,59893 L97115,61042 L96677,61042 L96677,62143 L96088,62143 L96088,63420 L96155,63420 L96155,64603 L95854,64603 L95854,65835 L95687,65835 L95687,66990 L95280,66990 L95280,68166 L94919,68166 L94919,69282 L94406,69282 L94406,70411 L93926,70411 L93926,71243 L92843,71243 L92843,72478 L92586,72478 L92586,73456 L91836,73456 L91836,74615 L91409,74615 L91409,75584 L90657,75584 L90657,76552 L89915,76552 L89915,77844 L89642,77844 L89642,78395 L88324,78395 L88324,79315 L87539,79315 L87539,80580 L87178,80580 L87178,81529 L86410,81529 L86410,82509 L85674,82509 L85674,82923 L84339,82923 L84339,84306 L84013,84306 L84013,84794 L82792,84794 L82792,85473 L81774,85473 L81774,86454 L81024,86454 L81024,87005 L79910,87005 L79910,87936 L79106,87936 L79106,88489 L78009,88489 L78009,89900 L77518,89900 L77518,89813 L75995,89813 L75995,90439 L74966,90439 L74966,91596 L74247,91596 L74247,91847 L72993,91847 L72993,92915 L72183,92915 L72183,92820 L70777,92820 L70777,93543 L69781,93543 L69781,93814 L68580,93814 L68580,94509 L67558,94509 L67558,94940 L66425,94940 L66425,95524 L65343,95524 L65343,95910 L64188,95910 L64188,96433 L63071,96433 L63071,96383 L61797,96383 L61797,96930 L60678,96930 L60678,97267 L59502,97267 L59502,97014 L58218,97014 L58218,97418 L57056,97418 L57056,97545 L55848,97545 L55848,97940 L54667,97940 L54667,98215 L53464,98215 L53464,97972 L52226,97972 L52226,98462 L51020,98462 L51020,97596 L49796,97596 L49796,98190 L48572,98190 L48572,97953 L47362,97953 L47362,97708 L46161,97708 L46161,97340 L44980,97340 L44980,97672 L43720,97672 L43720,97602 L42498,97602 L42498,97635 L41251,97635 L41251,96971 L40137,96971 L40137,96299 L39046,96299 L39046,96221 L37820,96221 L37820,95752 L36696,95752 L36696,95700 L35446,95700 L35446,95059 L34382,95059 L34382,95005 L33112,95005 L33112,94527 L31991,94527 L31991,93909 L30933,93909 L30933,93570 L29753,93570 L29753,93088 L28634,93088 L28634,92294 L27676,92294 L27676,91830 L26547,91830 L26547,91631 L25252,91631 L25252,90640 L24426,90640 L24426,90003 L23388,90003 L23388,89287 L22404,89287 L22404,88586 L21410,88586 L21410,88159 L20199,88159 L20199,87419 L19220,87419 L19220,85943 L18875,85943 L18875,85540 L17613,85540 L17613,84367 L17050,84367 L17050,83516 L16194,83516 L16194,83066 L14914,83066 L14914,82125 L14134,82125 L14134,80962 L13619,80962 L13619,80062 L12807,80062 L12807,79174 L11974,79174 L11974,78391 L10986,78391 L10986,77011 L10835,77011 L10835,76454 L9482,76454 L9482,75279 L9052,75279 L9052,74391 L8155,74391 L8155,73316 L7563,73316 L7563,71947 L7541,71947 L7541,70783 L7167,70783 L7167,69876 L6247,69876 L6247,68749 L5786,68749 L5786,67760 L4978,67760 L4978,66442 L5014,66442 L5014,65417 L4256,65417 L4256,64037 L4579,64037 L4579,62971 L3921,62971 L3921,61741 L3835,61741 L3835,60669 L3108,60669 L3108,59441 L3036,59441 L3036,58262 L2734,58262 L2734,57112 L2205,57112 L2205,55852 L2424,55852 L2424,54609 L2654,54609 L2654,53466 L1746,53466 L1746,52248 L1563,52248 L1563,51011 L1947,51011 L1947,50191 L94817,50191 L94817,48573 L1861,48573 L1861,47338 L1622,47338 L1622,46159 L2267,46159 L2267,44929 L2178,44929 L2178,43713 L2273,43713 L2273,42549 L2720,42549 L2720,41243 L2318,41243 L2318,40151 L3096,40151 L3096,39051 L3719,39051 L3719,37655 L3151,37655 L3151,36639 L4052,36639 L4052,35418 L4214,35418 L4214,34214 L4457,34214 L4457,33117 L5008,33117 L5008,32061 L5644,32061 L5644,30954 L6139,30954 L6139,29568 L6030,29568 L6030,28858 L7363,28858 L7363,27740 L7828,27740 L7828,26650 L8354,26650 L8354,25366 L8561,25366 L8561,24452 L9401,24452 L9401,23445 L10081,23445 L10081,22480 L10821,22480 L10821,21213 L11147,21213 L11147,20587 L12336,20587 L12336,19758 L13233,19758 L13233,18267 L13354,18267 L13354,17974 L14856,17974 L14856,17062 L15645,17062 L15645,15787 L16079,15787 L16079,14773 L16801,14773 L16801,14112 L17855,14112 L17855,13302 L18768,13302 L18768,12982 L20079,12982 L20079,11547 L20497,11547 L20497,11435 L21935,11435 L21935,10891 L23027,10891 L23027,9506 L23560,9506 L23560,9102 L24750,9102 L24750,8710 L25931,8710 L25931,7651 L26731,7651 L26731,7576 L28070,7576 L28070,6546 L28915,6546 L28915,6301 L30147,6301 L30147,5902 L31299,5902 L31299,5625 L32494,5625 L32494,4822 L33487,4822 L33487,4507 L34667,4507 L34667,3753 L35707,3753 L35707,4109 L37081,4109 L37081,3314 L38125,3314 L38125,2795 L39258,2795 L39258,3372 L40625,3372 L40625,2956 L41776,2956 L41776,2438 L42922,2438 L42922,2576 L44166,2576 L44166,2191 L45345,2191 L45345,1742 L46532,1742 L46532,2067 L47774,2067 L47774,1719 L48983,1719 L48983,1575 L50207,1575 L50207,2222 L51415,2222 L51415,1987 L52641,1987 L52641,2283 L53839,2283 L53839,2387 L55047,2387 L55047,2851 L56210,2851 L56210,2229 L57527,2229 L57527,3273 L58581,3273 L58581,3241 L59818,3241 L59818,3381 L61028,3381 L61028,4020 L62115,4020 L62115,4176 L63324,4176 L63324,4227 L64576,4227 L64576,4447 L65788,4447 L65788,5464 L66711,5464 L66711,5545 L67978,5545 L67978,6118 L69054,6118 L69054,6909 L70022,6909 L70022,7281 L71182,7281 L71182,7722 L72314,7722 L72314,8143 L73467,8143 L73467,8789 L74497,8789 L74497,9588 L75429,9588 L75429,10264 L76432,10264 L76432,10907 L77458,10907 L77458,11773 L78323,11773 L78323,12347 L79403,12347 L79403,12963 L80464,12963 L80464,13867 L81288,13867 L81288,14675 L82190,14675 L82190,15373 L83198,15373 L83198,16101 L84189,16101 L84189,17414 L84575,17414 L84575,17667 L86096,17667 L86096,19064 L86349,19064 L86349,19964 L87159,19964 L87159,20504 L88444,20504 L88444,21618 L88999,21618 L88999,22490 L89887,22490 L89887,23738 L90220,23738 L90220,24762 L90879,24762 L90879,25963 L91234,25963 L91234,26827 L92172,26827 L92172,28135 L92298,28135 L92298,29188 L92891,29188 L92891,29984 L94058,29984 L94058,31387 L93891,31387 L93891,32538 L94262,32538 L94262,33568 L94955,33568 L94955,34519 L95930,34519 L95930,35811 L95910,35811 L95910,36972 L96277,36972 L96277,38287 L96048,38287 L96048,39460 L96320,39460 L96320,40499 L97254,40499 L97254,41813 L96830,41813 L96830,42872 L97894,42872 L97894,44095 L98004,44095 L98004,45379 L97458,45379 L97458,46577 L97636,46577 L97636,47795 L97496,47795 L97496,48991 L97894,48991 L97894,50203 z" fill="white" stroke="pink" stroke-width="100"/>
<path d="M5786,50191 L5786,68749 L94817,68749 L94817,50191 L5786,50191" fill="none" stroke="green" stroke-width="100"/>
</svg>